<svg version="1.1" id="Layer_1" xmlns="http://www.w3.org/2000/svg" xmlns:xlink="http://www.w3.org/1999/xlink" x="0px" y="0px"
	 width="100%" viewBox="0 0 1024 1024" enable-background="new 0 0 1024 1024" xml:space="preserve">
<path fill="#000000" opacity="1.000000" stroke="none" 
	d="
M307.985168,618.342285 
	C301.979004,612.566589 295.667145,613.238281 288.986328,616.037170 
	C286.864960,616.925903 284.492798,617.251221 282.211182,617.715393 
	C276.623871,618.851990 272.005707,620.829895 267.842346,625.499390 
	C259.216278,635.174072 242.447128,633.866821 234.316406,623.378235 
	C231.641785,619.928040 228.617661,618.217468 224.590195,617.234070 
	C219.909653,616.091125 215.313721,614.546021 210.766846,612.933533 
	C208.272141,612.048706 206.500870,612.462219 204.416901,614.140259 
	C196.344894,620.640198 187.732437,620.812134 180.698471,614.910217 
	C173.992050,609.283142 172.658478,600.306152 177.520142,591.329285 
	C178.773727,589.014587 178.528885,587.379639 177.132263,585.433594 
	C169.151993,574.314087 162.327026,562.485229 155.859283,550.445496 
	C154.815674,548.502808 153.365799,547.720032 151.209732,547.238708 
	C141.366302,545.041260 137.955597,534.248596 144.563812,526.634949 
	C148.813370,521.738831 148.613144,520.154419 143.277023,516.681824 
	C138.987915,513.890564 136.842834,509.876617 137.294434,504.846130 
	C137.739532,499.888275 140.154999,496.121857 145.061371,494.147614 
	C150.647766,491.899750 153.311111,481.592804 149.690079,476.775116 
	C144.905594,470.409393 144.548477,462.119080 148.782867,455.714874 
	C153.035278,449.283447 160.589127,446.401520 168.451706,448.595947 
	C171.254242,449.378174 172.932114,448.929504 174.854507,446.662323 
	C180.454391,440.058075 186.278580,433.636597 192.196365,427.313385 
	C194.257141,425.111481 194.811707,423.209076 193.831528,420.210388 
	C191.353500,412.629150 194.629547,404.976105 201.331818,401.571686 
	C208.639847,397.859589 216.923920,399.693481 221.634537,406.631592 
	C223.598694,409.524536 225.755554,410.055573 228.777145,409.594299 
	C244.943314,407.126343 260.615173,409.782227 276.062683,414.365479 
	C278.561432,415.106873 280.613037,415.257874 283.165161,414.126373 
	C290.841309,410.723022 298.623383,414.360596 300.921204,422.429596 
	C301.655273,425.007324 302.904541,426.397949 305.185303,427.388947 
	C310.683594,429.777954 316.163635,432.214172 321.588959,434.763550 
	C324.141418,435.962982 326.028564,435.730194 328.344543,433.832581 
	C336.626190,427.047211 347.818390,427.856537 354.355896,435.398926 
	C360.681427,442.696747 359.670929,453.616119 351.722839,460.800201 
	C349.888428,462.458282 349.648315,463.816040 350.330200,465.957001 
	C354.458527,478.918701 355.835876,492.301208 356.107697,505.821686 
	C356.161041,508.476654 356.798859,510.407196 358.925873,512.299866 
	C367.460510,519.894104 366.060150,531.650757 356.034515,537.212097 
	C353.780396,538.462463 352.543396,539.906006 352.123566,542.492615 
	C351.431335,546.757751 350.398804,550.971558 349.411224,555.183899 
	C348.207581,560.317810 347.523285,564.725708 350.851410,570.086853 
	C355.954376,578.307007 348.180511,588.622498 338.485413,587.746887 
	C332.664368,587.221191 330.029358,590.199890 331.558807,595.594360 
	C333.563660,602.665771 332.824615,609.163147 327.310944,614.490295 
	C321.866211,619.750732 315.434570,620.779236 307.985168,618.342285 
M213.035461,491.227448 
	C210.599014,490.886627 209.441605,492.266296 208.582123,494.314880 
	C206.093521,500.246613 201.392731,503.485474 195.179001,504.126953 
	C192.155685,504.439117 191.292191,505.852753 190.806335,508.420624 
	C189.662384,514.466736 188.529816,520.527161 187.010971,526.484497 
	C186.323883,529.179565 187.056320,530.653809 188.961227,532.493591 
	C195.361557,538.675232 194.967834,547.485657 187.825424,552.801514 
	C184.877701,554.995422 184.198624,556.971924 185.150772,560.325989 
	C186.191040,563.990479 186.673447,567.813599 187.394974,571.568298 
	C187.715988,573.238770 188.210983,574.899597 189.645004,575.901062 
	C202.524048,584.895325 212.416412,597.352539 225.170044,606.484192 
	C226.074371,607.131653 226.869492,608.178284 228.465271,607.545288 
	C229.295135,601.030518 231.417068,594.740051 233.400452,588.400024 
	C234.438583,585.081665 235.061447,581.621277 235.696884,578.192627 
	C236.235535,575.286255 235.328262,573.570068 231.930313,573.155396 
	C226.469894,572.488892 221.183701,570.911865 216.115021,568.708679 
	C207.260269,564.859924 203.976303,558.350830 206.139069,548.958374 
	C210.666946,529.294739 230.887390,513.705627 251.821259,513.739197 
	C273.290253,513.773621 293.329041,529.191589 297.857727,549.159912 
	C300.025360,558.717651 296.889862,564.906799 287.811829,568.793762 
	C282.743195,570.963989 277.474426,572.525696 272.011200,573.304871 
	C269.121613,573.716980 267.954590,575.205505 268.295776,578.064331 
	C269.578003,588.808289 275.727417,598.147095 276.240356,609.896667 
	C281.300201,606.735046 285.295349,604.369629 289.147552,601.790771 
	C292.302490,599.678650 296.488220,598.466431 298.249115,595.032227 
	C301.337402,589.009338 306.031616,585.962280 312.397705,584.297974 
	C318.601166,582.676147 322.345734,577.364441 321.484161,572.473572 
	C317.759979,551.331726 312.825714,530.450378 307.889618,509.568451 
	C307.271271,506.952606 306.149902,505.505035 303.301361,505.264832 
	C299.171051,504.916565 295.968903,502.544739 294.243622,498.984009 
	C292.600647,495.593201 290.204102,494.517365 286.769379,494.374573 
	C262.482666,493.364563 238.198532,492.292877 213.035461,491.227448 
M261.291046,554.740662 
	C257.011688,553.822327 252.659729,554.518616 248.363403,554.166077 
	C243.744583,553.787170 241.681061,555.232239 242.189713,560.314331 
	C243.437180,572.778320 241.288177,584.845764 236.985825,596.557800 
	C235.410294,600.846680 234.893600,605.263428 235.222198,609.808228 
	C235.799789,617.797058 241.298233,624.170044 248.865265,625.566528 
	C256.565887,626.987671 264.406036,622.791931 267.765747,615.628479 
	C270.584259,609.618896 269.887665,603.666931 267.897919,597.655884 
	C265.914612,591.664368 263.781525,585.745789 262.526581,579.503052 
	C260.897461,571.399170 262.278595,563.314148 261.291046,554.740662 
M219.885635,535.373413 
	C214.416351,540.617981 216.454895,547.463928 215.264191,554.250549 
	C241.282837,545.855347 266.450623,545.642944 291.588440,556.029724 
	C292.620422,547.884460 289.080017,542.294739 284.801483,536.717773 
	C283.563782,537.353271 282.699249,537.803162 281.829620,538.242920 
	C270.327087,544.058838 258.286560,537.684937 257.651886,524.910706 
	C257.393402,519.708618 254.838348,519.124756 251.060059,519.426575 
	C238.765625,520.408936 228.242111,525.051575 219.885635,535.373413 
M276.176361,470.342285 
	C273.772369,468.292603 271.344971,466.269531 268.972137,464.184387 
	C267.223175,462.647430 265.482056,461.862701 263.104340,462.989807 
	C258.490173,465.177032 253.981125,464.559692 249.881668,461.685883 
	C247.731094,460.178375 245.960907,460.623352 243.912567,461.750885 
	C233.718628,467.362305 223.465225,472.865967 213.285080,478.502045 
	C211.682770,479.389099 209.051559,479.860992 209.713211,482.564331 
	C210.415085,485.432068 213.054169,484.762634 215.119629,484.876648 
	C224.740265,485.407501 234.363464,485.891235 243.985733,486.392578 
	C258.752167,487.161957 273.517761,487.949554 288.286194,488.678253 
	C290.039734,488.764801 292.055328,489.186584 292.882843,486.783264 
	C293.714844,484.366943 291.700287,483.542053 290.410919,482.422607 
	C285.890961,478.498077 281.289978,474.666809 276.176361,470.342285 
M230.608902,432.925507 
	C225.722687,428.408142 220.808533,424.399567 214.126785,430.192657 
	C213.235703,430.965240 211.607574,431.085815 210.304550,431.143738 
	C207.589676,431.264465 206.713806,432.805786 206.204559,435.225861 
	C203.948364,445.948486 201.531250,456.637115 199.200653,467.344238 
	C198.834442,469.026703 197.516739,471.165771 199.976868,472.113647 
	C202.678604,473.154633 204.509705,476.769257 208.397614,474.585205 
	C219.412308,468.397797 230.559235,462.445923 241.638748,456.373352 
	C243.086090,455.580078 244.383820,454.762024 244.586884,452.718018 
	C245.130585,447.244751 244.995743,442.361359 239.111832,439.365326 
	C236.201141,437.883209 233.807159,435.386261 230.608902,432.925507 
M289.597260,473.882538 
	C291.624573,475.610352 293.560791,477.461853 295.700165,479.037506 
	C299.048065,481.503326 307.907990,478.580933 309.192383,474.685913 
	C309.973938,472.315704 310.615692,469.894867 311.493042,467.561737 
	C312.826324,464.016205 313.702454,460.847443 310.344696,457.594208 
	C308.115112,455.433990 308.025940,451.905731 308.797699,449.036804 
	C309.830353,445.198059 308.117706,443.132629 305.369995,441.165253 
	C303.477753,439.810425 301.706787,438.281189 299.926727,436.776489 
	C298.657135,435.703247 297.404694,435.304932 295.853302,436.237762 
	C291.558258,438.820190 287.099304,439.172150 282.502502,437.057007 
	C281.709229,436.691986 280.859863,436.523529 280.129395,437.064789 
	C276.922729,439.440826 273.485901,441.593506 270.659241,444.364502 
	C268.773834,446.212769 271.101898,448.754333 270.989990,451.016754 
	C270.949158,451.841980 270.938049,452.712982 270.665741,453.474579 
	C269.652344,456.309296 270.836426,458.151062 273.004028,459.914459 
	C278.428436,464.327454 283.719910,468.903839 289.597260,473.882538 
M336.224884,517.753174 
	C330.995239,511.058411 323.348145,507.563477 316.424164,503.203888 
	C314.241089,501.829315 312.318756,503.626007 313.028992,506.628510 
	C314.136780,511.311920 315.328033,515.976440 316.375183,520.673157 
	C320.117981,537.460449 323.814880,554.257996 327.584534,571.302124 
	C329.063873,568.860107 330.253021,566.334595 332.639801,565.062866 
	C335.210663,563.693115 335.858276,561.433228 336.301025,558.943359 
	C337.492065,552.245605 338.608246,545.533997 339.872498,538.850281 
	C340.230835,536.955933 340.265656,535.412048 338.892212,533.786621 
	C335.065918,529.258301 333.945435,524.116943 336.224884,517.753174 
M266.715759,417.800720 
	C254.341370,414.404663 241.730865,414.582153 229.089386,415.369110 
	C227.293839,415.480927 225.251495,415.596405 224.525253,417.710571 
	C223.735550,420.009491 225.163467,421.404266 226.859451,422.691193 
	C233.348724,427.615265 239.825378,432.557190 246.241638,437.575653 
	C248.227219,439.128693 250.030411,439.851929 252.575653,438.649231 
	C255.865311,437.094788 259.330933,437.366852 262.761017,438.610962 
	C266.025238,439.794952 275.669464,434.645691 276.538574,431.358490 
	C278.098694,425.457642 275.244720,420.301422 269.427429,418.531433 
	C268.792328,418.338226 268.136871,418.211914 266.715759,417.800720 
M319.291687,489.874664 
	C319.860046,492.588715 317.888336,496.097565 320.311707,497.993469 
	C326.124359,502.540955 332.386505,506.513885 338.563629,510.785309 
	C340.428345,507.937927 339.771362,505.542084 339.556122,503.348145 
	C338.453766,492.109924 336.839844,480.912262 336.078552,469.654846 
	C335.771973,465.121582 333.770020,462.505524 329.953278,461.972046 
	C326.156586,461.441406 321.263550,462.244995 318.989838,464.744568 
	C315.752197,468.303894 315.602417,473.950317 314.135315,478.705688 
	C313.202667,481.728638 316.506897,482.391937 317.333435,484.436890 
	C317.952789,485.969238 318.584686,487.496490 319.291687,489.874664 
M161.496414,500.892548 
	C163.264648,506.657104 162.289261,511.685883 157.717728,515.900146 
	C154.515701,518.851929 154.775894,521.558594 158.762421,523.582581 
	C162.666656,525.564819 164.877075,528.530762 165.882828,532.647217 
	C166.147034,533.728577 166.246475,535.024780 168.303497,535.558105 
	C171.375534,533.026123 174.606735,529.837646 179.235657,529.084900 
	C180.474136,528.883484 180.907639,527.494446 181.159882,526.358154 
	C182.672333,519.544800 184.152893,512.723999 185.582413,505.892792 
	C185.854553,504.592407 185.989807,503.122437 184.708710,502.219269 
	C180.336563,499.136902 177.859360,494.736023 176.400391,489.142914 
	C170.783066,492.825409 165.391266,495.402405 161.496414,500.892548 
M197.441574,430.259430 
	C191.462921,436.937225 185.471176,443.603424 179.516739,450.302765 
	C178.340149,451.626556 176.663910,452.923248 178.074158,455.028900 
	C181.320175,459.875671 182.069122,465.130707 180.743362,470.739014 
	C180.316910,472.543060 181.158508,473.693573 182.721481,474.230072 
	C184.114838,474.708374 192.595871,469.866455 192.940582,468.341492 
	C195.717590,456.056274 198.502411,443.771149 201.061096,431.439545 
	C201.631149,428.692078 200.072723,428.204132 197.441574,430.259430 
M153.559387,459.348877 
	C151.010651,464.431274 151.200363,469.371246 154.919159,473.741364 
	C157.824112,477.155090 161.753342,478.341278 166.177826,477.297882 
	C171.276581,476.095459 174.989914,471.873596 175.523895,466.843964 
	C176.024063,462.132782 173.082794,457.024261 168.743393,455.067230 
	C163.590866,452.743500 158.536423,454.002289 153.559387,459.348877 
M308.168060,592.520081 
	C300.385620,597.698364 302.250305,609.315918 309.759216,612.619141 
	C314.946869,614.901245 320.699341,613.574829 324.085144,609.209717 
	C327.625854,604.644836 327.607544,598.849304 324.038727,594.565918 
	C320.253510,590.022705 314.987427,589.170715 308.168060,592.520081 
M184.959305,610.694458 
	C189.622238,613.782837 194.382507,613.884155 198.958420,610.712158 
	C203.067703,607.863647 204.543655,603.646790 203.493408,598.856323 
	C202.389923,593.823181 198.919540,590.894592 193.931778,589.765747 
	C189.520111,588.767212 184.552979,591.069763 182.035446,595.249207 
	C179.062851,600.183960 179.776535,604.780457 184.959305,610.694458 
M333.752258,451.395020 
	C332.637878,455.319122 333.771210,457.858307 338.049347,458.631317 
	C343.583862,459.631378 348.642944,457.065521 351.232941,451.836761 
	C353.485352,447.289581 352.545197,442.074890 348.846802,438.600922 
	C344.824280,434.822632 338.752075,434.234436 334.079468,437.191803 
	C331.265106,438.972992 329.414062,440.968323 331.930725,444.447113 
	C333.213837,446.220764 333.517639,448.445770 333.752258,451.395020 
M200.087646,479.312561 
	C193.843719,476.093384 188.786865,476.718628 185.254837,481.146545 
	C182.230194,484.938385 182.280136,490.982239 185.365677,494.547638 
	C189.291260,499.083801 195.266724,499.564636 200.048004,495.729065 
	C204.800400,491.916656 205.053391,485.453705 200.087646,479.312561 
M218.644562,415.479340 
	C217.204147,408.246643 213.019379,405.049133 206.514526,406.210907 
	C201.676270,407.075043 198.465195,411.838562 199.225876,417.023438 
	C199.869553,421.410858 203.546448,424.654785 208.183487,424.926270 
	C213.395493,425.231384 216.624863,422.542755 218.644562,415.479340 
M356.973541,528.401306 
	C359.650665,524.471313 359.032379,520.797546 355.765686,517.648254 
	C352.848419,514.835815 349.227753,514.305359 345.638367,516.135864 
	C341.904327,518.040039 340.915863,521.588257 341.457184,525.460999 
	C341.931152,528.851990 344.054474,531.253967 347.309967,532.264832 
	C351.077118,533.434570 354.106995,531.902954 356.973541,528.401306 
M349.902252,503.195984 
	C349.639893,490.215454 348.728912,477.363373 343.244507,464.229065 
	C342.081604,465.892517 341.549957,466.300751 341.582855,466.656830 
	C342.830566,480.155609 344.128967,493.649689 345.425476,507.143921 
	C345.509125,508.014709 345.830750,508.839386 346.750336,509.022675 
	C347.778625,509.227661 348.944489,508.919708 349.305695,507.950195 
	C349.751617,506.753265 349.733856,505.383575 349.902252,503.195984 
M164.131882,552.458130 
	C167.696030,559.467407 173.789307,563.710266 180.897079,568.410278 
	C179.538498,561.674072 180.142487,555.404724 172.654617,552.997986 
	C169.816284,552.085693 168.548019,548.831604 167.597061,545.890625 
	C167.114838,544.399353 167.409378,542.475525 165.566376,541.622803 
	C160.189041,545.599854 160.189041,545.599854 164.131882,552.458130 
M309.756622,498.411499 
	C312.817444,496.095551 314.561951,493.283813 312.895630,489.368652 
	C311.294922,485.607635 307.119110,483.799316 303.403473,485.147369 
	C299.648041,486.509918 297.479218,490.694611 298.612701,494.391113 
	C299.942566,498.728119 303.771332,500.321136 309.756622,498.411499 
M176.917038,548.608032 
	C180.664352,550.440613 183.825546,549.437927 185.951248,546.114136 
	C187.673141,543.421814 187.520142,540.343323 185.459015,537.763672 
	C183.495773,535.306519 180.750412,534.641602 177.866409,535.823120 
	C174.623413,537.151794 173.092499,539.762451 173.322983,543.307678 
	C173.462097,545.447327 174.627808,546.995667 176.917038,548.608032 
M251.425354,447.847870 
	C249.555923,451.885651 250.960693,455.063171 254.468369,457.126678 
	C257.280273,458.780884 260.242981,458.224152 262.605408,455.802124 
	C265.364685,452.973206 265.275299,448.878601 262.467285,446.035065 
	C259.499420,443.029633 255.393127,443.476532 251.425354,447.847870 
M272.649567,566.773743 
	C277.315002,565.655640 282.204010,565.117065 286.843567,561.716614 
	C280.863342,558.097107 275.165741,556.554382 268.771454,555.992676 
	C268.392212,560.004395 266.907410,563.394897 267.824677,566.929565 
	C269.372040,567.748596 270.624634,566.933777 272.649567,566.773743 
M154.879242,493.728760 
	C156.885803,495.721863 158.546478,494.189453 160.149963,493.119263 
	C165.520081,489.535126 170.852097,485.893524 176.175934,482.240753 
	C177.075485,481.623566 178.337265,481.166077 177.973801,479.588318 
	C176.175201,477.770660 174.936905,479.702972 173.726807,480.432678 
	C170.519943,482.366486 167.108246,484.005463 163.417023,483.251678 
	C158.488663,482.245239 156.520309,484.506012 155.672333,488.800446 
	C155.386429,490.248352 154.965027,491.669525 154.879242,493.728760 
M323.605560,444.744263 
	C320.107727,443.611206 317.372437,444.649719 315.523193,447.774841 
	C314.233185,449.954834 314.248566,452.195709 315.783630,454.326599 
	C317.577240,456.816467 320.055176,457.309784 322.863892,456.708740 
	C325.222015,456.204102 326.560516,454.584015 327.205322,452.360992 
	C328.125244,449.189606 326.820251,446.883636 323.605560,444.744263 
M152.328354,500.231720 
	C148.013565,498.349579 145.076187,500.196503 143.697128,504.133484 
	C142.400787,507.834259 144.294357,510.565796 147.868332,511.962769 
	C151.015732,513.192993 153.606766,511.842346 155.081009,509.244934 
	C156.930878,505.985687 156.234558,502.849884 152.328354,500.231720 
M287.116547,419.555145 
	C284.002808,420.517670 282.532867,422.767883 282.444794,425.888336 
	C282.378510,428.236908 283.529877,430.081604 285.623199,431.151337 
	C288.024017,432.378174 290.457550,432.396057 292.641144,430.618195 
	C295.006409,428.692413 295.430756,426.055695 294.551941,423.371246 
	C293.533600,420.260712 291.019196,419.156036 287.116547,419.555145 
M335.193542,570.751648 
	C332.319092,574.270203 332.848541,577.568054 336.193604,580.299683 
	C338.708069,582.352905 341.621094,582.224670 343.819611,579.820984 
	C345.963318,577.477234 346.880646,574.520569 344.720123,571.654846 
	C342.263733,568.396606 339.206329,567.527954 335.193542,570.751648 
M156.886551,529.672668 
	C153.309311,527.380432 150.517624,528.669922 148.390686,531.789612 
	C146.556000,534.480713 147.021545,537.220459 149.255188,539.487732 
	C151.905350,542.177795 154.962967,542.305420 157.615723,539.680176 
	C160.712250,536.615845 160.686859,533.255493 156.886551,529.672668 
M275.848938,527.539856 
	C272.161896,525.061523 268.477600,522.576904 263.659851,522.113098 
	C262.394287,527.403259 264.394348,531.050110 268.759613,533.407898 
	C272.663727,535.516602 276.323578,535.158630 279.227539,531.547974 
	C278.884033,529.660217 277.440033,528.979980 275.848938,527.539856 
M229.274200,556.811340 
	C226.539719,557.820129 223.423828,557.920654 221.188263,560.061218 
	C222.411606,565.138550 227.802505,567.475037 235.410965,566.343872 
	C236.538300,557.941406 235.625870,556.285278 229.274200,556.811340 
M181.583145,581.463623 
	C182.088440,582.080750 182.593750,582.697937 183.324982,583.591003 
	C184.568298,577.924072 180.396210,576.425659 176.956039,574.413818 
	C178.385880,576.588745 179.815704,578.763672 181.583145,581.463623 
M296.385010,607.518677 
	C297.093964,606.978027 297.605225,606.296204 297.064484,605.433716 
	C296.482513,604.505676 295.587769,604.824463 294.878876,605.263977 
	C292.650543,606.645081 290.464355,608.094177 288.261841,609.516968 
	C288.313446,609.668945 288.365021,609.820923 288.416626,609.972961 
	C290.873962,609.242004 293.331299,608.511108 296.385010,607.518677 
M346.225372,541.798096 
	C346.268005,541.103088 346.993927,540.319580 345.709412,539.563171 
	C344.838928,544.335510 343.996826,548.952271 343.154694,553.569092 
	C343.429016,553.616638 343.703339,553.664185 343.977661,553.711731 
	C344.665497,549.960083 345.353363,546.208435 346.225372,541.798096 
M211.274445,603.320618 
	C209.065353,606.410645 209.676086,606.949341 216.838287,607.951843 
	C214.985962,606.359680 213.372040,604.972412 211.274445,603.320618 
z"/>
<path fill="#000000" opacity="1.000000" stroke="none" 
	d="
M675.938721,532.897339 
	C675.769836,532.481812 675.736145,532.309998 675.648010,532.173218 
	C675.364258,531.733154 674.716370,531.293762 674.797485,532.151123 
	C675.646240,541.120667 675.038940,550.111145 675.316772,559.084167 
	C675.431580,562.791687 674.320007,564.583252 670.240479,564.475586 
	C664.438416,564.322449 664.428162,564.231995 664.433655,558.210632 
	C664.446655,544.068481 664.081970,529.926025 664.073303,515.783569 
	C664.071777,513.281982 662.659302,509.778564 666.821228,508.786774 
	C672.234985,507.496643 675.636169,508.819855 677.560852,513.032593 
	C681.909607,522.551025 686.194092,532.098633 690.549744,541.734009 
	C692.673462,540.758057 692.821228,538.744141 693.529724,537.178101 
	C697.164612,529.143677 700.678833,521.054810 704.276123,513.003174 
	C705.964722,509.223572 712.902649,507.054047 716.470459,509.110291 
	C718.044556,510.017487 718.049255,511.579895 718.053650,513.049072 
	C718.101013,528.862854 718.067749,544.677002 718.141724,560.490601 
	C718.169006,566.336487 713.773926,564.033691 710.942627,564.524475 
	C707.451416,565.129761 706.719238,563.084473 706.744812,560.096619 
	C706.824402,550.788696 706.773987,541.479675 706.773987,530.773071 
	C703.030518,539.010193 699.763611,546.023315 696.665588,553.110291 
	C695.575684,555.603577 694.341309,557.223206 691.239929,557.267090 
	C688.006287,557.312805 686.437988,555.807068 685.234131,553.104492 
	C682.255798,546.418152 679.120972,539.801575 675.938721,532.897339 
z"/>
<path fill="#000000" opacity="1.000000" stroke="none" 
	d="
M425.732483,531.806091 
	C428.491943,525.510559 431.124573,519.572632 433.745331,513.629456 
	C435.943054,508.645721 438.205353,507.661835 444.608826,508.750916 
	C448.984833,509.495178 447.647400,513.168152 447.690979,515.517578 
	C447.965942,530.338684 447.819885,545.167053 447.976532,559.991272 
	C448.020386,564.142151 445.658325,564.443970 442.483276,564.399414 
	C439.264404,564.354248 436.557068,564.405334 436.670258,559.824280 
	C436.896515,550.668579 436.737396,541.503418 436.132690,532.092468 
	C433.142822,538.771790 430.092194,545.424927 427.193054,552.143494 
	C426.037689,554.820923 424.615845,556.431458 421.322510,556.482544 
	C417.884003,556.535950 416.223480,555.073486 414.979950,552.117615 
	C412.225433,545.570129 409.234467,539.122192 405.337158,532.840637 
	C405.337158,541.240906 405.213989,549.643738 405.390747,558.040344 
	C405.475250,562.055054 405.092804,564.486755 399.894836,564.493652 
	C394.425049,564.500916 394.619781,561.559753 394.638428,557.810852 
	C394.709564,543.481567 394.598511,529.151184 394.714294,514.822449 
	C394.731934,512.640625 393.336456,509.098602 397.260132,508.923096 
	C400.919830,508.759430 405.363068,506.876068 407.613922,512.172058 
	C410.935272,519.986633 414.494385,527.700928 418.014740,535.429443 
	C418.881714,537.332764 419.264740,539.549072 421.591003,541.353455 
	C422.995361,538.133911 424.297943,535.147644 425.732483,531.806091 
z"/>
<path fill="#000000" opacity="1.000000" stroke="none" 
	d="
M594.047302,564.393677 
	C589.723328,565.007019 587.397034,563.218018 585.752014,559.793457 
	C583.735413,555.595215 581.204956,551.641724 579.229431,547.426453 
	C577.556824,543.857422 574.660217,543.899353 571.645386,544.351685 
	C568.124512,544.880005 569.362061,547.871643 569.201538,549.975220 
	C569.011902,552.459656 569.165527,554.969238 569.144958,557.467773 
	C569.091553,563.945068 565.434570,566.376404 559.170837,564.222595 
	C557.109314,563.513733 556.966858,561.889526 556.963928,560.229797 
	C556.935852,544.405457 556.941040,528.580994 556.971985,512.756592 
	C556.976257,510.592133 557.542725,508.671906 560.276001,508.744568 
	C569.078308,508.978577 577.924316,507.834961 586.679749,509.546082 
	C593.218872,510.824127 597.639526,514.725464 599.000732,521.146545 
	C600.478760,528.118713 599.797363,535.089478 593.443237,539.630310 
	C590.071838,542.039612 590.308533,543.900635 592.087158,546.968506 
	C595.210083,552.355225 598.791809,557.548828 600.973389,563.402344 
	C598.499939,564.792847 596.456604,564.242188 594.047302,564.393677 
M569.139404,522.882751 
	C569.031433,534.439880 570.323120,535.585999 581.329346,533.700439 
	C581.655640,533.644531 581.996216,533.635376 582.307495,533.534363 
	C585.919556,532.362610 587.744873,529.829163 587.604492,526.073914 
	C587.461121,522.239136 585.357788,519.809753 581.538635,519.425049 
	C578.423157,519.111328 575.254761,519.300110 572.109924,519.309631 
	C570.353210,519.314880 569.336853,520.206055 569.139404,522.882751 
z"/>
<path fill="#000000" opacity="1.000000" stroke="none" 
	d="
M632.804749,565.385681 
	C617.770386,566.510437 608.240417,559.003967 607.049377,543.095459 
	C606.550171,536.428345 606.635559,529.781921 608.397156,523.293213 
	C611.225281,512.875916 619.345825,507.495514 631.601624,507.724243 
	C642.954956,507.936096 650.812256,513.846863 653.117432,524.159363 
	C654.994568,532.557373 654.851562,541.045776 653.034241,549.409973 
	C650.962830,558.943359 643.759399,564.562012 632.804749,565.385681 
M642.081909,535.520203 
	C642.005371,533.530090 641.980896,531.536438 641.843079,529.550598 
	C641.330811,522.168945 637.493896,518.387695 630.575195,518.392944 
	C623.992493,518.397888 619.880615,522.190186 619.395813,529.213440 
	C619.076721,533.837769 619.149048,538.505432 619.319702,543.143616 
	C619.622437,551.371155 622.916565,554.774719 630.302856,554.847595 
	C637.552307,554.919128 641.259949,551.258179 641.784302,543.452820 
	C641.939941,541.135376 641.986877,538.810669 642.081909,535.520203 
z"/>
<path fill="#000000" opacity="1.000000" stroke="none" 
	d="
M824.437012,563.524536 
	C823.046448,549.540039 823.921875,535.882141 823.644226,522.237244 
	C823.600159,520.071899 823.635132,517.904785 823.638977,515.738525 
	C823.651245,508.932251 826.164368,507.106781 832.822327,508.782532 
	C835.323792,509.412140 835.252441,511.190155 835.273254,513.011108 
	C835.326538,517.676392 835.385986,522.343994 835.291321,527.007568 
	C835.234863,529.788147 836.437561,530.937012 839.166687,530.889221 
	C843.331116,530.816284 847.499756,530.799316 851.663086,530.902405 
	C854.649292,530.976379 855.856628,529.695129 855.777283,526.714661 
	C855.657593,522.219055 855.939941,517.709351 855.731506,513.220459 
	C855.520020,508.666229 858.340332,508.564331 861.584106,508.691132 
	C864.478699,508.804260 867.395752,507.892517 867.586853,512.853638 
	C868.196655,528.686707 867.749756,544.495300 867.457520,560.316528 
	C867.383911,564.299011 865.105652,564.509094 862.213257,564.372375 
	C859.344177,564.236694 855.809692,565.211304 855.851013,560.377380 
	C855.890930,555.712097 855.647827,551.034729 855.907898,546.383850 
	C856.132751,542.362610 854.468262,541.296692 850.648926,541.262512 
	C835.316650,541.125488 835.317627,541.017517 835.311768,555.662292 
	C835.307983,565.129517 834.875854,565.466003 824.437012,563.524536 
z"/>
<path fill="#000000" opacity="1.000000" stroke="none" 
	d="
M729.676941,516.079895 
	C729.747253,508.725586 729.747253,508.711823 736.522095,508.701508 
	C744.840515,508.688873 753.159424,508.758148 761.477051,508.678589 
	C765.184814,508.643127 768.270386,508.438599 768.325317,513.870972 
	C768.383118,519.588379 765.119446,519.394470 761.217529,519.316467 
	C755.896057,519.210083 750.566040,519.444092 745.248169,519.271790 
	C740.640930,519.122559 741.323425,522.266846 741.333862,525.035950 
	C741.344299,527.789429 740.621277,530.991272 745.206970,530.875977 
	C750.028015,530.754822 754.856934,530.971985 759.679382,530.880188 
	C763.744934,530.802856 764.092590,533.358154 764.186768,536.477783 
	C764.285461,539.747498 763.248779,541.469421 759.649719,541.338501 
	C754.997925,541.169312 750.330688,541.433960 745.677856,541.278809 
	C742.474243,541.172058 741.320740,542.370728 741.260315,545.629639 
	C741.106018,553.947937 740.966248,553.945740 749.234497,553.961243 
	C754.225464,553.970642 759.217529,554.047974 764.206970,553.964783 
	C768.015991,553.901306 768.393616,556.205627 768.351074,559.208252 
	C768.308533,562.206482 768.438721,565.006226 764.206177,564.977539 
	C754.224731,564.909851 744.242432,564.886658 734.260864,564.927612 
	C730.434937,564.943298 729.624939,562.864685 729.649048,559.492676 
	C729.751221,545.185730 729.683228,530.877625 729.676941,516.079895 
z"/>
<path fill="#000000" opacity="1.000000" stroke="none" 
	d="
M804.605103,521.108154 
	C800.497253,519.028503 796.522583,517.837952 792.257446,518.614502 
	C789.277588,519.157043 786.802063,520.728271 786.573975,524.037659 
	C786.367554,527.032471 788.711426,528.447998 791.146362,529.259644 
	C795.086731,530.572937 799.169189,531.463379 803.098755,532.804688 
	C811.826416,535.783569 815.561157,540.832092 815.277527,548.896301 
	C814.993530,556.968506 810.440002,562.800964 801.821472,564.644653 
	C792.992920,566.533142 784.218933,565.996826 776.392090,560.699341 
	C774.606201,559.490601 771.599304,558.147949 774.176758,555.396423 
	C776.176392,553.261719 776.949585,548.060608 782.023682,551.426697 
	C786.168091,554.176025 790.848145,555.135681 795.837280,554.834778 
	C799.527405,554.612366 802.650940,553.308594 803.308716,549.511658 
	C803.988281,545.588867 800.807495,544.049561 797.677673,543.055847 
	C793.402649,541.698486 788.974060,540.782227 784.778992,539.224976 
	C777.445496,536.502747 774.437073,531.653503 774.694092,523.816040 
	C774.924377,516.794434 778.780151,511.573608 785.625671,509.291351 
	C794.022339,506.491974 802.067078,507.784607 809.710388,511.881287 
	C811.437256,512.806824 814.441589,514.028748 812.413025,516.618164 
	C810.639038,518.882446 810.141724,524.237488 804.605103,521.108154 
z"/>
<path fill="#000000" opacity="1.000000" stroke="none" 
	d="
M539.767822,551.771912 
	C544.365417,547.823120 546.950439,551.984436 549.227112,554.154419 
	C551.682739,556.494873 548.493835,558.326843 546.978943,559.718445 
	C539.713501,566.392334 530.968323,566.638611 522.128845,564.323364 
	C513.683594,562.111450 509.322662,555.816528 507.747833,547.465271 
	C506.117523,538.819824 506.242676,530.197815 508.993103,521.809021 
	C513.807251,507.125732 536.488953,502.258484 547.174255,513.503723 
	C548.777710,515.191162 550.303162,517.153809 547.682678,518.871826 
	C545.403137,520.366272 543.843811,524.875427 539.958801,521.725647 
	C535.343079,517.983398 530.355042,517.118286 525.077820,519.672485 
	C520.008423,522.125916 519.275208,527.020996 519.143433,532.000793 
	C519.059814,535.160156 519.009521,538.331360 519.180420,541.484558 
	C519.864624,554.105286 528.644226,558.633423 539.767822,551.771912 
z"/>
<path fill="#000000" opacity="1.000000" stroke="none" 
	d="
M484.966431,554.973999 
	C484.961639,556.454834 484.851532,557.466553 484.972809,558.449707 
	C485.599579,563.531494 482.976501,564.458496 478.471588,564.469971 
	C473.890198,564.481628 472.470581,562.632507 472.989594,558.496765 
	C474.111755,549.554382 471.785187,541.545410 467.246613,533.801331 
	C462.737122,526.106873 458.965881,517.979797 454.841339,509.985168 
	C463.320496,506.820129 466.862701,508.168701 470.318176,515.384338 
	C472.963470,520.908142 475.641296,526.416321 478.468750,532.271240 
	C481.269684,530.576477 481.636200,527.947144 482.710419,525.871521 
	C484.313751,522.773499 485.596954,519.511597 487.088196,516.353394 
	C491.189636,507.667175 491.974915,507.312683 502.126312,509.300659 
	C503.081360,510.723083 502.032990,511.800049 501.454956,512.934448 
	C497.452301,520.789795 493.670929,528.771057 489.340210,536.441772 
	C486.122314,542.141541 484.258820,547.947815 484.966431,554.973999 
z"/>
</svg>