<?xml version="1.0" standalone="no"?>
<!DOCTYPE svg PUBLIC "-//W3C//DTD SVG 20010904//EN"
 "http://www.w3.org/TR/2001/REC-SVG-20010904/DTD/svg10.dtd">
<svg version="1.0" xmlns="http://www.w3.org/2000/svg"
 width="481.000000pt" height="478.000000pt" viewBox="0 0 481.000000 478.000000"
 preserveAspectRatio="xMidYMid meet">

<g transform="translate(0.000000,478.000000) scale(0.100000,-0.100000)"
fill="#000000" stroke="none">
<path d="M1502 4731 c-74 -25 -122 -67 -159 -140 -29 -55 -33 -73 -33 -138 0
-54 6 -88 21 -124 25 -58 41 -32 -131 -219 -138 -149 -244 -270 -288 -327
l-33 -42 -47 22 c-73 34 -198 31 -274 -6 -141 -69 -218 -221 -188 -371 15 -76
40 -126 91 -181 l40 -44 -47 -138 c-26 -76 -52 -141 -57 -144 -5 -4 -26 -10
-46 -13 -50 -8 -109 -60 -137 -120 -60 -129 -2 -277 125 -323 l48 -17 6 -63 6
-63 -53 -53 c-62 -60 -80 -109 -74 -198 8 -104 93 -190 202 -204 l51 -7 125
-222 c69 -121 182 -308 253 -414 70 -106 127 -195 127 -199 0 -3 -12 -22 -26
-41 -71 -92 -89 -241 -42 -343 102 -223 385 -272 556 -97 l43 45 157 -52 c86
-28 199 -62 250 -76 91 -23 94 -25 123 -70 38 -59 114 -131 168 -158 194 -99
444 -45 568 123 l44 60 142 33 c78 18 206 52 284 74 l143 42 46 -42 c72 -67
143 -95 239 -95 67 0 90 5 143 28 175 80 248 285 165 463 -14 30 -13 33 29 97
38 59 46 66 68 61 108 -25 187 -12 252 43 97 82 102 251 11 344 l-37 38 33
137 c18 76 44 198 60 272 l27 134 51 19 c63 23 143 106 161 165 19 63 15 161
-9 213 -23 50 -68 101 -116 131 l-33 21 0 141 c0 241 -38 505 -102 722 l-30
100 24 14 c13 8 44 36 69 62 61 61 89 135 89 234 0 140 -63 240 -188 302 -50
25 -68 28 -152 28 -84 0 -102 -3 -151 -28 -31 -15 -76 -48 -99 -73 l-41 -45
-162 72 c-89 40 -203 91 -253 114 l-91 42 -7 50 c-21 159 -208 249 -352 170
l-50 -28 -77 26 c-320 107 -681 139 -1023 89 -39 -6 -40 -5 -59 36 -10 23 -42
63 -70 89 -86 78 -193 100 -303 62z m152 -82 c207 -52 205 -347 -2 -399 -89
-22 -196 29 -236 114 -19 41 -21 125 -3 169 17 40 88 105 124 113 16 3 33 7
38 9 19 6 36 5 79 -6z m841 -179 c123 -14 272 -46 385 -83 l95 -32 1 -95 c1
-52 3 -107 5 -121 4 -24 -9 -36 -113 -113 l-117 -86 -53 25 c-74 35 -167 35
-232 0 l-48 -25 -91 70 c-51 39 -141 109 -202 156 -60 47 -138 107 -172 132
-62 46 -62 47 -56 87 10 67 16 72 95 83 99 13 393 14 503 2z m775 -95 c38 -20
68 -64 75 -111 12 -77 -61 -164 -138 -164 -74 0 -136 58 -144 133 -11 110 109
193 207 142z m-1015 -419 c55 -44 102 -81 104 -82 2 -2 -5 -23 -14 -48 -14
-35 -16 -61 -11 -109 l6 -62 -133 -69 c-182 -95 -420 -225 -554 -303 l-113
-65 -42 36 c-23 20 -59 42 -80 48 -21 6 -38 17 -38 25 0 21 170 796 178 811 4
8 28 15 57 16 75 4 148 32 196 75 l43 38 150 -116 c83 -63 196 -151 251 -195z
m-805 239 c17 -9 30 -19 30 -23 0 -4 -12 -54 -26 -112 -14 -58 -47 -208 -74
-335 -92 -433 -81 -395 -110 -401 -76 -17 -101 -26 -134 -49 -47 -32 -56 -31
-90 4 -27 29 -28 32 -17 75 25 102 6 218 -50 295 l-30 43 62 76 c85 105 392
441 402 442 4 0 21 -7 37 -15z m2202 -147 c76 -34 138 -64 138 -67 0 -14 -91
-43 -103 -34 -18 15 -191 155 -196 159 -19 17 46 -6 161 -58z m-162 -53 c56
-47 113 -94 126 -104 25 -20 25 -20 10 -72 -20 -66 -20 -92 -1 -158 11 -35 28
-63 54 -87 l38 -36 -47 -147 c-26 -80 -51 -162 -56 -181 l-10 -35 -75 -5 c-57
-4 -83 -11 -108 -29 -32 -23 -32 -23 -54 -4 -64 57 -548 467 -565 478 -1 1 5
18 13 38 19 47 19 123 0 178 -14 38 -14 44 0 51 8 5 59 41 112 81 54 40 104
76 111 81 7 4 32 -2 57 -14 80 -39 219 -20 265 36 7 7 16 14 20 14 5 0 54 -38
110 -85z m843 55 c95 -36 157 -126 157 -230 0 -187 -209 -309 -373 -217 -31
17 -41 28 -39 43 2 10 6 49 9 87 5 59 2 74 -22 122 -14 30 -31 55 -36 55 -23
0 -5 42 35 84 71 73 169 93 269 56z m-1686 -170 c75 -33 108 -117 78 -195 -19
-51 -51 -80 -106 -96 -51 -16 -119 9 -155 57 -59 76 -34 192 49 233 52 26 80
26 134 1z m1269 -6 c69 -33 100 -144 57 -202 -68 -91 -181 -92 -240 -3 -46 69
-19 165 57 203 44 22 82 23 126 2z m-3099 -210 c181 -88 175 -361 -11 -445
-26 -12 -64 -19 -104 -19 -221 -1 -331 257 -178 418 78 83 182 100 293 46z
m1613 -119 c93 -63 188 -70 275 -22 l43 24 251 -212 c138 -117 267 -227 286
-244 l36 -31 -18 -50 c-17 -47 -19 -50 -48 -45 -43 7 -697 42 -1198 64 -236
11 -431 22 -435 26 -3 3 -11 26 -18 50 l-11 45 131 74 c110 63 648 356 652
356 1 0 25 -16 54 -35z m1645 -25 l80 -40 32 -308 c52 -502 67 -662 60 -668
-3 -4 -53 25 -109 64 -57 39 -158 109 -225 154 l-123 83 8 45 c18 114 -8 203
-78 263 l-39 33 40 130 c22 71 47 153 55 182 16 52 17 54 47 49 44 -7 122 11
149 33 13 11 23 19 23 20 0 0 36 -18 80 -40z m278 -142 c57 -212 82 -389 93
-658 l7 -160 -39 0 c-21 0 -49 -3 -61 -6 -19 -5 -22 -1 -27 48 -17 162 -86
864 -86 871 0 4 19 7 43 7 l43 0 27 -102z m-2982 -159 c88 -27 148 -110 149
-207 0 -96 -45 -166 -135 -208 -58 -28 -111 -30 -162 -9 -93 39 -144 112 -145
209 -1 153 144 259 293 215z m-372 -28 c36 -27 21 -51 -67 -107 -42 -27 -141
-94 -218 -150 l-141 -101 -39 20 c-22 11 -40 20 -41 22 -3 1 53 168 77 231 8
20 10 21 72 8 46 -10 78 -11 118 -4 63 12 148 50 175 80 22 25 33 25 64 1z
m2626 -134 c54 -31 85 -79 85 -134 0 -149 -171 -222 -278 -120 -104 100 -28
276 118 277 19 0 53 -10 75 -23z m-2640 -99 c15 -93 88 -200 155 -228 17 -7
30 -18 30 -25 0 -6 -15 -81 -34 -166 -19 -85 -44 -204 -56 -265 l-22 -111 -50
-6 c-60 -8 -126 -44 -166 -93 -27 -33 -34 -36 -65 -30 -32 6 -36 10 -42 49
-17 99 -66 165 -146 193 -51 19 -49 16 -64 106 -5 33 -3 38 29 57 36 23 74 68
94 114 17 40 15 129 -4 177 -19 48 -41 26 170 172 78 53 146 97 153 98 6 0 14
-19 18 -42z m885 -13 c239 -8 1016 -43 1219 -55 95 -6 179 -10 186 -10 8 0 21
-22 30 -49 17 -51 69 -112 120 -139 17 -9 59 -21 94 -27 l64 -11 20 -84 c10
-47 45 -195 77 -330 87 -363 210 -969 210 -1031 0 -3 -40 -37 -88 -76 -68 -54
-99 -72 -133 -78 -59 -10 -147 -55 -187 -97 -18 -19 -45 -58 -60 -86 -25 -48
-40 -60 -204 -164 -173 -111 -267 -170 -279 -176 -3 -1 -9 39 -12 90 -6 97
-19 147 -85 338 -37 106 -82 313 -71 325 3 2 52 14 108 25 184 37 354 99 418
154 107 90 111 267 12 476 -175 368 -592 586 -988 516 -310 -55 -548 -231
-687 -508 -55 -110 -74 -181 -74 -278 0 -88 20 -140 73 -192 69 -66 243 -133
431 -165 l108 -18 -6 -62 c-7 -71 -48 -231 -101 -401 -21 -69 -38 -146 -42
-201 l-8 -89 -96 76 c-172 139 -313 263 -357 314 -43 51 -160 152 -305 262
-42 32 -79 66 -81 75 -3 9 -22 101 -42 205 -36 181 -37 190 -19 200 82 49 111
75 137 125 61 116 24 254 -86 326 -23 16 -27 24 -23 49 6 31 93 452 102 492 4
18 14 22 72 26 84 6 169 44 214 95 28 32 63 99 83 156 5 15 13 17 48 13 24 -3
117 -8 208 -11z m-1369 -188 c147 -98 23 -317 -137 -241 -89 42 -108 159 -36
226 33 31 46 36 98 37 27 1 53 -7 75 -22z m3406 -135 c87 -60 183 -126 213
-147 30 -21 57 -40 59 -41 2 -2 -4 -24 -13 -50 -36 -105 -11 -224 62 -302 l30
-32 -28 -143 c-15 -78 -38 -205 -51 -283 l-23 -141 -43 -23 c-61 -32 -113
-108 -113 -165 0 -23 -16 -42 -27 -32 -2 3 -20 90 -39 193 -19 103 -57 287
-84 408 -108 485 -131 586 -160 696 l-30 115 33 27 c17 15 37 28 44 28 6 0 82
-49 170 -108z m622 -185 c131 -87 96 -293 -55 -332 -177 -45 -299 146 -191
299 48 69 168 85 246 33z m-1969 -63 l35 -6 0 -91 c0 -77 4 -100 24 -141 50
-101 148 -167 259 -174 80 -5 143 12 200 56 l46 35 29 -34 c41 -49 105 -183
123 -261 15 -59 13 -158 -2 -158 -2 0 -21 11 -42 24 -50 33 -169 80 -267 105
-402 104 -947 64 -1237 -91 -50 -26 -61 -29 -69 -17 -25 39 9 200 66 307 92
175 280 336 472 403 118 41 267 59 363 43z m216 -59 c83 -31 120 -53 207 -123
67 -53 68 -54 50 -74 -58 -65 -174 -76 -252 -25 -65 43 -95 97 -99 178 -5 81
-5 81 94 44z m-2217 -130 c49 -25 81 -72 81 -118 0 -175 -239 -201 -275 -30
-4 22 0 46 14 77 33 76 112 107 180 71z m537 -134 c82 -37 114 -124 75 -203
-65 -135 -268 -106 -288 41 -10 77 29 140 104 166 50 18 60 18 109 -4z m3291
-55 c2 -2 -69 -344 -91 -435 -17 -71 -19 -76 -39 -68 -12 5 -9 36 18 194 64
363 54 325 84 318 14 -4 27 -7 28 -9z m-3604 -53 c4 -2 7 -25 7 -51 1 -93 82
-193 177 -217 43 -11 48 -16 54 -46 41 -216 50 -271 45 -276 -8 -8 -239 181
-289 237 -23 26 -68 93 -100 149 l-58 102 53 59 c44 48 57 57 78 53 14 -3 28
-8 33 -10z m1907 -270 c5 -4 4 -30 -2 -58 -6 -27 -11 -124 -12 -215 -1 -197
16 -289 96 -512 46 -129 51 -153 55 -248 4 -91 2 -113 -17 -163 -114 -303
-514 -332 -653 -48 -31 64 -32 70 -32 186 1 116 3 125 52 281 72 225 87 308
87 494 1 85 -2 185 -7 222 l-7 67 37 4 c61 8 394 0 403 -10z m-547 -35 c3 -13
8 -57 12 -98 3 -41 8 -90 11 -109 l5 -34 -54 6 c-86 11 -245 54 -316 87 l-65
31 29 20 c43 28 168 74 255 94 41 9 80 18 85 20 24 8 33 4 38 -17z m817 -15
c94 -24 240 -86 240 -102 0 -20 -174 -80 -306 -106 -43 -9 -89 -18 -101 -21
-22 -4 -23 -1 -23 46 0 48 16 180 25 207 5 15 26 11 165 -24z m1340 -245 c91
-63 89 -173 -4 -242 -53 -40 -153 -17 -189 43 -28 48 -30 92 -5 140 40 77 131
104 198 59z m-3305 -89 c50 -39 96 -74 103 -78 16 -9 30 -176 14 -170 -18 6
-229 319 -215 319 5 0 49 -32 98 -71z m3025 -154 l22 -35 -37 -50 c-21 -28
-42 -49 -49 -47 -6 2 -12 28 -14 58 -2 44 1 61 18 82 12 15 25 27 30 27 5 0
18 -16 30 -35z m-2787 -39 c22 -17 22 -26 -2 -26 -10 0 -21 9 -24 20 -6 23 1
25 26 6z m2637 -41 c0 -8 -4 -15 -9 -15 -13 0 -22 16 -14 24 11 11 23 6 23 -9z
m-2521 -91 c105 -31 181 -146 168 -255 -11 -89 -72 -171 -156 -207 -46 -19
-136 -19 -182 1 -207 87 -202 388 7 462 52 19 99 18 163 -1z m2506 -33 c108
-60 152 -205 98 -316 -88 -177 -339 -189 -438 -21 -83 142 -3 326 158 367 51
13 128 0 182 -30z m-2214 -197 c7 -9 63 -55 123 -103 64 -50 103 -87 94 -89
-15 -3 -237 73 -250 86 -9 9 2 122 12 122 4 0 14 -7 21 -16z m1749 -48 c0 -14
4 -36 10 -50 6 -16 6 -27 -1 -31 -19 -12 -271 -85 -292 -85 -15 0 3 17 58 52
44 28 109 70 145 94 36 24 68 44 73 44 4 0 7 -11 7 -24z"/>
</g>
</svg>
